# xmcd CD database file
# Copyright (C) 1993-1998 Ti Kan
#
# Track frame offsets:
#	150
#	22533
#	40448
#	55453
#	77648
#	96020
#	111535
#	132183
#	142588
#	158768
#	171465
#	188550
#	216658
#	234173
#	252663
#	266663
#
# Disc length: 3817 seconds
#
# Revision: 1
# Processed by: cddbd v1.4b41PL1 Copyright (c) Steve Scherf et al.
# Submitted via: CDValet v3.01 - Copyright (c) 1997 Greg Leichner
#
DISCID=dc0ee710
DTITLE=Papa Bue - Papa Bue큦 Viking Jazz Band
DYEAR=1900
DGENRE=
TTITLE0=Ice Cream
TTITLE1=A kiss to build a dram on
TTITLE2=1919 March
TTITLE3=Basin Street Blues
TTITLE4=Lil퀽iza Jane
TTITLE5=Stranger on the shore
TTITLE6=The song is ended
TTITLE7=You큞l never walk alone
TTITLE8=Mack the knife
TTITLE9=Coffee Grinder
TTITLE10=You know what it means
TTITLE11=in the mood
TTITLE12=On the sunny side of the street
TTITLE13=Second line
TTITLE14=When irish eyes are smiling
TTITLE15=That큦 my home
EXTD=
EXTT0=
EXTT1=
EXTT2=
EXTT3=
EXTT4=
EXTT5=
EXTT6=
EXTT7=
EXTT8=
EXTT9=
EXTT10=
EXTT11=
EXTT12=
EXTT13=
EXTT14=
EXTT15=
PLAYORDER=
